<mxfile host="app.diagrams.net" modified="2022-11-25T11:44:46.355Z" agent="5.0 (Windows NT 10.0; Win64; x64) AppleWebKit/537.36 (KHTML, like Gecko) Chrome/107.0.0.0 Safari/537.36" version="20.6.0" etag="MvCm1pYlOQ-wLbKlWHo4" type="github">
  <diagram id="PKGeO5340jByiR5kQJhy" name="Page-1">
    <mxGraphModel dx="1422" dy="761" grid="1" gridSize="10" guides="1" tooltips="1" connect="1" arrows="1" fold="1" page="1" pageScale="1" pageWidth="850" pageHeight="1100" math="0" shadow="0">
      <root>
        <mxCell id="0" />
        <mxCell id="1" parent="0" />
        <mxCell id="xvB1KBVkJuCZohAcy0nT-1" value="" style="whiteSpace=wrap;html=1;aspect=fixed;" vertex="1" parent="1">
          <mxGeometry x="40" y="240" width="240" height="240" as="geometry" />
        </mxCell>
        <mxCell id="xvB1KBVkJuCZohAcy0nT-2" value="" style="shape=image;verticalLabelPosition=bottom;verticalAlign=top;imageAspect=0;aspect=fixed;image=data:image/png,iVBORw0KGgoAAAANSUhEUgAAAKgAAACoCAYAAAB0S6W0AAAACXBIWXMAAC4jAAAuIwF4pT92AAAS2klEQVR4nO1d/3XiuBaW5+z/yVYAW0F4FQxTwTAVQCoYUsGQCoZUMLiCJRUsVPCggrUreKEC3lHyKaOYe2XZ2JZk6zuHM7vBGBt/ur90fyTn81lERPiKP+KTMSNJs1shxEQIof6VGONVxGf8fy6EyArvvQghDvjvTL3O83HxuAgNUYJqSNJsChJOQMDP1h++DkcQVhJ4J/89z8eS0IPHYAkKyTjVXnceXJYOKYV36jVUSTsogiZpNgEhFx4SsgySsFuQdev3pTaH3hMUpJSEnAkhRh5cUhM4gazbvpO1lwSF+l60ICl152dHvH+AMzQl3lOO1m3D16TIuj7PxweL44NCrwgKJ0eScn7lqfaa03Jow9vWogMqIqActJsrTnsEUTcNXqpT9IKgSZpJUi5rSqaT5oxI75mSjJ0hSbNxwXmrY5bIe1qDrEFHA4ImKIi5qvEQj5oN57Va1AgrbeivFT8uiboBUYOMAgRJ0JrEPOJhbUMO2SRpNgNZq5gxwUrUoAgKG3NTgZg5jt/0LY4IG3ZW0bQ5gaSrli+vMQRBUKi5TYWdnT0exCDihQilLUFYGydLLtxlCL+P9wRN0kyu9h+Wh6d9DbfYAFJ1iZcNUeVCXvisXbwlaEV1Lom5iokXb6hI1BN+u3VX11cF3hEUP66Umt8tDo/ENKAiUb2Upl4RFLbUxsLo34OYTmOWoaDCovdOmnpD0CTN5Cr/WXLYCcZ9b3ZKugQEwNrC2XyGNHUeknJOUKzutUVc7wmrO+ZJXgnEkdclal96+jPXDqdTgiJ8tC1R6TlWc1TnDQKCYVOyO+VcYzkjKNTNrmQVR6nZMiyl6aOr4L4TguJH+WU45ASpOZjEXJew1GTpeT5edH2ZnRPUwhk6wvaJoaOOkaTZusTTl89m2qVG+9TlT5Ck2aaEnCl+gEhOBzjPx1J43EODUZASdgf7tRN0JkFBTpOn/uDrbsbQYOEfdCZJO5GgJeSUq/U+ktMfILQ0BhEpdCZJW5egFuScDjW5w3eAgDuD89S6JG1VgkZyhg0QbwrfgELrkrQ1CVoSSorkDAwlwqY1SdqKBI3k7B8QAzVJ0lZ8iMYlKDzA/zJvR3IGjhJJ+oRQVWNolKDYkTgw4YlIzp4gSbODwXG6b3LvvjEVD0N5G8k5CEwNIag1tGgjaNIGXRtW1TKSsz/QvHtqx0kKqG1Tnn0jBIVTxNkljzHBuH8oIekIqXxX42qCalnaFNKQarAjqgFakXOKviIx6Co0IUE3jN15NFx8RE8A7fjE3M3Pa+3RqwiKmnXK7jz5UtMS0T4QWtozX3SVqq9NUKwMrqFCdIqGhwVjj95BkNXCNRKUWxnP0SkaHpDDy2Xc/6ir6msRFMYvq9rrnDMifKBE55m5kVpboZUJit0iTmRHuzOCU/WfEY6shDoSdMV47c+xyC0CAooj4rpqAL8SQdHQiwrIR9Ue8Q6Dqr+pGnqsKkE51R5r1yOKWDKq/gfMRCtYExTSk+rpc4z1RBFFwKvneGEddqoiQbkvi7tFERzWaF1UxNxWiloRFI37qbDSPvZMiuAAs481C21+OFsJyknJmAgSYQQ2bWpL0VKCGmzPKD0jbFFbitpI0Cg9I65CiRQ1xkWNBIUIpvpHRukZURWcQDM62X+UfElvpGeS5mpW/K02wFVoU4sxq3MU47ktQEpRdM8r7kIuTHwyVnUmafZCnDA/z8fWgVaXSNJ8qs2Kt50ifER4ZBvJ2iwMM6++cdvkLEENzRcaLSttAyDmqsJkOgoYGziqrC0grSealNYxWEkNk/Ff4i2ZxzEjP2Mg6JawP+VDG/u6rZmkuU3f9apAj/yR0eYGKauMIxykpGZ4JfEnxSvSSYJnRZ1k6zE5J2ga0SQ5BSoU/0nSnLTHkzQfJ2m+QzeVeQVT4g4aKkvSfEgREU77khKU8+K5zCQvVTvIuas5/N8WP5M0/3D/INa/V5oSN28JFPkB99FrwNakQk6kAOAISrE59zG0pJHTVnJdg3mS5mtpSiRpvq0w5NYGaGWYk5KkZ6AcojtqZ+mCoFDvlETwLhkZNmdX5FT43pIpIXAffydp3vfcWk4TT4t/oCQot4J9VO9cL6i20aYpIfGrz+oeFb+Umr/gHhWov2Ax1LtXZcRQhdfYfr5Dqvux7uEXNhsm+FdBapIXhLBC2OXbEiNvLrQSRVBKgvp4w31PkpaaYQ1bd2YRvnpfrEn6KpyeEcLyNWa9o2YyyeQk3df5VHhzwvwIXtmfsNHaVrM+QIat/q4YvlL4ClMh89GmNRRYftDgRRuUUu/CQwk6BE+3KYw0onLP1xWodjmVCXr0KTgPz70ND7rvUBsOPm0KUILvg19RJCjlOfomPX2TAqFBbgpssNBdg+QWkuRf8Un74y1j1/lG0N7vtnSAuQ/P1bDx8/6MP1F/LMC3LnWRoM3grrh16wiUHUoSlFKdJw8nD/ugmvqCOZcE0yEoAfi+5fmJ+qOG2OOz//jpeNeKEoDvjlIkaIRwvOlBckwljugEpbYNfVPvEe3gs8NgPicELwha5cMuERdNO3Biixpi7K9mxytB9bhTAT6SIZod7eDOoS1KefKvzrBRgnrowYsO4ndHJhWsKeR4IFRrQtfwac/+g4oPJrZ4no8OLT/cZUsPShL/y3k+Glcsg+4SrnIcKKHzgaBUbJGbe+MDQpwiIh++LBWRZbT/8+B6KIw82QJ9R5PDZDsBMnJCy2Y6nuejLJBeqr5oUysv3itg1+OfklxQqf4fpTrF676gDZ7xN/X+o4XJoH/mgTj+WTvfNzmjVHvvXjMZljiGOm/xOqSt+gWmwRNxHym+S33nkTnvU0WTyEUyDqXiX5+xIih1UV45SNg3/mlx6BLdQMa4r0wzCU7oOKLeGyNIbbI50/N8NMN5JjjXWHvoe7z/ov2OekqbPPZFlm9omfHibQr0h/Oucaxy0DKUbszw3otmin07z0cL7TvH2nv3OK/AeVchZ4CZmod5Q1BITm7c9wfIEgfUK6m2PXpp8A0aLOi4Pc9Ha5RJFCH/uEQOpTrP6jwfSVtyjb9tSqpLf2gSQp0jl4sI96UWnVo4q0LLoTG0hoJcMFss2OJvssf969075IKVzSVS29/QJ3iv4mFz2khOdfxEPkCoPS5clEKlPkIKcdihaO0W6lW+DlotvsQEx0wMjuWhIMXUZ3VbWpJ7StQQFaWfKpUw1Y7p15thAQUZPy5rv+gDqnrsshpyiQe9BcHXaIxwwgN/0R6w6cEpLbIt1GXdas7E9yTN5fk25/loClW+1iSYlJZKxRfPW8x/mBD1X0Wn5QX3RElrdd5i1jzXyMx7eE1QqMCqxXE3qMFZQx2vofL/Rbe6AwilHvDeYKOph1rWKe8HMtWf0Whshn5NnzXS6ERT580K90ctFirsw0l9dd7NFUWFXvXe8l3F1wnLKOflBqlkC4R4BNTduEKQXBHXJMV1D/mrpmYV2dT/61NS1HmL0nJnkbQxw2aFqeDsmipcr0wBbwkKqVdVCuSQIg+wMx/gNKgHNwNZ7xGKeSohnwxcr2Eu/KXZrfeafbvQwkTyO6ew+ZQJkRF73PK8r9JdC139hffKitq+w86W9/QffO8DwkyfsSCX2nuPsMdtQ03BENS1zVInGD+CxBpDihzggSuJ8hWq90X15hRvi0HPh1wUwk7f8ZkZzr2D2lWqcIPjX/Df00KnvQMT/P4Bb3uMYxYFlS897xXXBBfXfKtJaHU9v3DeqXa9ts/y6Fuv0tcGtkxrZjkowVn8TLYjZIaHhYQTQlJUSMhHPEH6dgpk0/1T/M7zfJz4bIOGTk6hmQ+hBMpd5TiQ/cCEr158ISQTIh5UEy+o4hDa9OzhfPmCV8dWEZSyO1x2jgudoGNkLl07yKFLeNmGXBE0Zqk3i4uubZ5j77hlI5sLYjNpzgXigukOJ88y6RV+E9TQgsQJQeMArU6x0jYyXIEyg145UObFu0xe9Tmjvy9IsVngDIZhsq9aVCcoRQiXzkpU8+0iRU6pa3BC8MIGpcS8SwkaYt1RKPCFnILjmKoo9pagiMkdLQ6NqIYHj8gpGC39rs11glKO0o1DT16EOPbbY8jF/h/XNicBSgi+C0udoJzN51KKbqOzdDVy1ClNPNspUqA8+PfrfCcoeuRQJRKu95EXnnbh8BknpP69NorwdRSNoeXSO0GLe/EHYt/YKUFljA65oRfZLgOECqorrTYppNxlyAEIJQJCckuPyxcJuiMmaMghn7cuJ30g6eK+UO04RCxh9ng3N7UmKIJ+MOmKgXpuR8l5uhjU1JcBq/vU46lxdUHZnx84+IGgmMdJEcCLVjNIaBijXGNI8Clu2QiSNOM4xRMUoNSHNwm3cp8enTO+DISoT30jJ1BqfwqGoGSfHMzx9AZSmoKof6KILSX6bh4DDlPJiMo3FyUYHYGSoBcCh8qo3zLOyMLH7mzIfNqYtkYd1zftYZbYZtXnuBdZTdrLrC4IO+r3uNDeFwSV3nqSZnvCgJ0F0j6QwgpTg11ggVCZmvU+JZoxvCDEtw0oRHQNOJPlQnu/VnVe/DHNlkw/pC+G3FGvoXX66BJOqiT9fxZZsaOKwNDiCzOSywfl1GXIxnrXO1J5zCW4BLx3Sr2TOQIkQRGUpzzkmSHB1Gt03OH4hC4msTLgEpyQIzcfTBn11AduAmy//Q4Euu87+KrFQGzJSkBmHDXr/5nbqWQJep6PN4xKDFpttUzSExI0+rIV2TQ46clGYMpqkqgPjgxZKEFA2zZtch7SEQ1og3QiOwJlYuXn+Zhd0GUE5ZJbgzf+QaQJOtxdgxP6zfuab+kFkjRbMG0vjfkFZJjpwwFptmXshmBDTkWg1Y7qamcbUD+qDYLoDJWDCS1J/GnKlLMhKNl5zHX3u7aAgPpEmwSioILpGXrXx6G2loD0pHYn0/N8bAxdlhJUvH0BF+TujRSNaA8G6flX2TxY2/aLvbVFI9oFpCdFztRmWLGVBBVvX8QlXEQpGkECmzpUGZGwkZ6iYo96bhfGtzLWCH/ATWmxkp6iCkEhJancyjskl0REvAO7RhwvrE3Dqi3AuROvQt2jj2gNaybu+WgrPUVVgkKKpsRbN7GXUoQCMpao2PmpqklYZ4jCitmj/2oohIoYCKBJOWG1rFq+XpmgEM+cqt9EVT94bBjVvkcCUiXUGkNzno/XTOe5qOoHDINqF3Vzca+Zk8RtUX1FcDZiQIDXzgmnR/RcqIzaBMUXPjJvr30rU45oHZxql7VGtXccr5o0hy9mVX20R4eBJM3WhoLEq7RpE6MQuWK0u7jL1H/AnOPmQj3UVe0KVxMUF8AZwHMMqo3oIWDGcULoGc70VWhkmCzCB1QAX7yNnY5OU98A823H2J15UyXqTU47XhqGHkSnqUcoISdKrpvpJ9sYQXFBM8YevXkbwh9J2hPsDL2ultfanToanRePXSauDCSStAdI0mxjIOdTnd0iExolqPjtNHF155GkAQPknDN3IHM8G0+7bJyg4rfTFEnaI5SQ89hWWyHrko9aJzff1Omt0UFz9kpE84BDtC4h57StIRutElREkgYNzVvnbM5WySnaUvE6UPfMxUiVuo9xUs/gAzlFFwQVdiT9Feua/AH8g8w1OUUXKv7Dl5nVvQCJK2ddRzQHaDOunkh0SU7RNUGFub24whE7EbG1TMdAVhKX+CG6JqdwQVBh7tWjcHprAsu35Yto9HmM0bDYNAmltI9SG3BCUPHbzuH2cxVka8RVVPntwUKlC2TEO8lKc0ZQYb9yc0jT2F6nQWjVl1wNkYAmWza9fVkFTgkq7ALBClGaNgRLqZnDF3Aao3ZOUAUL50n4sKJDhpZgXDYv6hlay7kw8Iag4vcPaMqWUdhDmka1bwFoqVWJhy4gAFZNZMI3Ba8IKqr9mAJx01UMSdHAb7nEy6TOBRb9wrff0juCKqD1+MayZ3wkqoaKxPROaurwlqAKKLr7YXl4+jYleJjJJxWJKXyVmjq8J6j42LXCdhjsHkQdRKAftvsSJTc2xMzhbHr/+wRBUIWKal9os9c3fVP/kJZqRLrtLPwTFm4wpeBBEVQBcbxVBaIKba7RNmSyokHXzCJurEP15VyHFkcOkqAKNYkqQNYtyOq1vQrzZgpSmnZ9KJywKNehLsqgCaoAolZRdTpOyAmQr4Pr2KpGSPWquvhEyBKziF4QVAE26qKi+qOwR8LuQU2Xa1oCwYZUE+0UKSeWTg6HI0jZm522XhFUAQ9fzd6sI1U55CCugMQt4oCRiVRvAEm+W7yavKYTzJVehtd6SVAdCMEsYMPVUZc+4qTZ0L0OpfWeoDpA1mkLkrUL5CDlbkiJ3IMiqA6YAboz4hthJSGV87Yb6jbuYAlKAU6WPo7bdufqWhw1p0xFEwaf9yoiQcuhedvqX6F53kUoQh/hLOlQ8+YFyJi1ER3oGyJBI/yFEOL//lpYdcMtnS4AAAAASUVORK5CYII=" vertex="1" parent="1">
          <mxGeometry x="76" y="280" width="168" height="168" as="geometry" />
        </mxCell>
      </root>
    </mxGraphModel>
  </diagram>
</mxfile>
